# AST/ASF file generated using VICON BodyLanguage
# -----------------------------------------------
:version 1.10
:name VICON
:units
  mass 1.0
  length 0.45
  angle deg
:documentation
   .ast/.asf automatically generated from VICON data using
   VICON BodyBuilder and BodyLanguage model FoxedUp or BRILLIANT.MOD
:root
   order TX TY TZ RX RY RZ
   axis XYZ
   position 0 0 0  
   orientation 0 0 0 
:bonedata
  begin
     id 1 
     name lhipjoint
     direction 0.700308 -0.549349 0.455834 
     length 2.59063 
     axis 0 0 0  XYZ
  end
  begin
     id 2 
     name lfemur
     direction 0.34202 -0.939693 0  
     length 6.31066  
     axis 0 0 20  XYZ
    dof rx ry rz
    limits (-160.0 20.0)
           (-70.0 70.0)
           (-60.0 70.0)
  end
  begin
     id 3 
     name ltibia
     direction 0.34202 -0.939693 0   
     length 7.36093   
     axis 0 0 20   XYZ
    dof rx
    limits (-10.0 170.0)
  end
  begin
     id 4 
     name lfoot
     direction 0.0905332 -0.248738 0.96433   
     length 2.0233   
     axis -90 7.62852e-016 20   XYZ
    dof rx rz
    limits (-45.0 90.0)
           (-70.0 20.0)
  end
  begin
     id 5 
     name ltoes
     direction 1.53573e-011 -4.21855e-011 1   
     length 1.01524   
     axis -90 7.62852e-016 20   XYZ
    dof rx
    limits (-90.0 20.0)
  end
  begin
     id 6 
     name rhipjoint
     direction -0.61416 -0.607328 0.503944   
     length 2.34332  
     axis 0 0 0  XYZ 
  end
  begin
     id 7 
     name rfemur
     direction -0.34202 -0.939693 0   
     length 6.58548   
     axis 0 0 -20   XYZ
    dof rx ry rz
    limits (-160.0 20.0)
           (-70.0 70.0)
           (-70.0 60.0)
  end
  begin
     id 8 
     name rtibia
     direction -0.34202 -0.939693 0   
     length 7.20707   
     axis 0 0 -20   XYZ
    dof rx
    limits (-10.0 170.0)
 end
 begin
     id 9 
     name rfoot
     direction -0.136772 -0.375778 0.916561   
     length 1.92184  
     axis -90 -7.62852e-016 -20   XYZ
    dof rx rz
    limits (-45.0 90.0)
           (-20.0 70.0)
  end
  begin
     id 10 
     name rtoes
     direction -1.53535e-011 -4.21828e-011 1   
     length 0.951089   
     axis -90 -7.62852e-016 -20   XYZ
    dof rx
    limits (-90.0 20.0)
  end
  begin
     id 11 
     name lowerback
     direction -0.0444974 0.988086 -0.147332   
     length 1.9609   
     axis 0 0 0   XYZ
    dof rx ry rz
    limits (-20.0 45.0)
           (-30.0 30.0)
           (-30.0 30.0)
  end
  begin
     id 12 
     name upperback
     direction 0.00613146 0.999513 0.0306081   
     length 1.94944   
     axis 0 0 0   XYZ
    dof rx ry rz
    limits (-20.0 45.0)
           (-30.0 30.0)
           (-30.0 30.0)
  end
  begin
     id 13 
     name thorax
     direction 0.0254621 0.994518 0.101418   
     length 2.0119   
     axis 0 0 0   XYZ
    dof rx ry rz
    limits (-20.0 45.0)
           (-30.0 30.0)
           (-30.0 30.0)
  end
  begin
     id 14 
     name lowerneck
     direction 0.0168698 0.977854 0.208608   
     length 1.6375   
     axis 0 0 0   XYZ
    dof rx ry rz
    limits (-20.0 45.0)
           (-30.0 30.0)
           (-30.0 30.0)
  end
  begin
     id 15 
     name upperneck
     direction -0.0283988 0.989338 -0.142843   
     length 1.6851   
     axis 0 0 0   XYZ
    dof rx ry rz
    limits (-20.0 45.0)
           (-30.0 30.0)
           (-30.0 30.0)
  end
  begin
     id 16
     name head
     direction -0.0129422 0.99741 -0.0707489  
     length 1.69029  
     axis 0 0 0   XYZ
    dof rx ry rz
    limits (-20.0 45.0)
           (-30.0 30.0)
           (-30.0 30.0)
  end
  begin
     id 17 
     name lclavicle
     direction 0.820295 0.564628 -0.0911715  
     length 3.16484  
     axis 0 0 0   XYZ
    dof ry rz
    limits (-20.0 10.0)
           (0.0 20.0)
  end
  begin
     id 18 
     name lhumerus
     direction 1 -4.48969e-011 1.00186e-027   
     length 5.17853   
     axis 180 -30 -90   XYZ
    dof rx ry rz
    limits (-60.0 90.0)
           (-90.0 90.0)
           (-90.0 90.0)
  end
  begin
     id 19
     name lradius
     direction 1 -4.48966e-011 -1.52922e-027   
     length 3.40399   
     axis 180 -30 -90   XYZ
    dof rx
    limits (-10.0 170.0)
  end
  begin
     id 20
     name lwrist
     direction 1 -4.48981e-011 -3.80893e-027   
     length 1.70199   
     axis 1.1049e-015 90 90   XYZ
    dof ry
    limits (-180.0 0.0)
 end
  begin
     id 21 
     name lhand
     direction 1 -4.48957e-011 -7.61786e-027   
     length 0.708964   
     axis 4.86085e-015 90 90   XYZ
    dof rx rz
    limits (-90.0 90.0)
           (-45.0 45.0)
  end
  begin
     id 22 
     name lfingers
     direction 1 -4.48929e-011 -1.52357e-026   
     length 0.571585   
     axis 9.7217e-015 90 90   XYZ
    dof rx
    limits (0.0 90.0)
  end
  begin
     id 23
     name lthumb
     direction 0.707107 -6.34905e-011 0.707107   
     length 0.820685   
     axis -90 45 2.85299e-015   XYZ
    dof rx rz
    limits (-45.0 45.0)
           (-45.0 45.0)
  end
  begin
     id 24 
     name rclavicle
     direction -0.858602 0.463947 -0.218075   
     length 3.35137  
     axis 0 0 0   XYZ 
    dof ry rz
    limits (-10.0 20.0)
           (-20.0 0.0)
  end
  begin
     id 25 
     name rhumerus
     direction -1 -4.48969e-011 -1.98511e-027  
     length 5.42351   
     axis 180 30 90   XYZ
    dof rx ry rz
    limits (-90.0 60.0)
           (-90.0 90.0)
           (-90.0 90.0)
  end
  begin
     id 26 
     name rradius
     direction -1 -4.48961e-011 -2.82624e-027   
     length 3.42066   
     axis 180 30 90   XYZ
    dof rx
    limits (-10.0 170.0)
  end
  begin
     id 27 
     name rwrist
     direction -1 -4.48966e-011 -3.80893e-027   
     length 1.71033   
     axis 1.1049e-015 -90 -90   XYZ
    dof ry
    limits (-180.0 0.0)
  end
  begin
     id 28
     name rhand
     direction -1 -4.48964e-011 -7.61786e-027   
     length 0.743608   
     axis 4.86085e-015 -90 -90   XYZ
    dof rx rz
    limits (-90.0 90.0)
           (-45.0 45.0)
  end
  begin
     id 29
     name rfingers
     direction -1 -4.48961e-011 -1.52357e-026   
     length 0.599516   
     axis 9.7217e-015 -90 -90   XYZ
    dof rx
    limits (0.0 90.0)
  end
  begin
     id 30
     name rthumb
     direction -0.707107 -6.34913e-011 0.707107   
     length 0.860789   
     axis -90 -45 -2.85299e-015   XYZ
    dof rx rz
    limits (-45.0 45.0)
           (-45.0 45.0)
  end
:hierarchy
  begin
    root lhipjoint rhipjoint lowerback
    lhipjoint lfemur
    lfemur ltibia
    ltibia lfoot
    lfoot ltoes
    rhipjoint rfemur
    rfemur rtibia
    rtibia rfoot
    rfoot rtoes
    lowerback upperback
    upperback thorax
    thorax lowerneck lclavicle rclavicle
    lowerneck upperneck
    upperneck head
    lclavicle lhumerus
    lhumerus lradius
    lradius lwrist
    lwrist lhand lthumb
    lhand lfingers
    rclavicle rhumerus
    rhumerus rradius
    rradius rwrist
    rwrist rhand rthumb
    rhand rfingers
  end

#!OML:ASF E:\mmandel\Project 1\Capture day 1\Session 2\Subject.ASF
:FULLY-SPECIFIED
:DEGREES
850
root 7.3937 14.6407 -0.639979 161.149 83.3545 140.095
lowerback 18.0132 2.70464 -2.65945
upperback 2.13849 3.12914 -0.391638
thorax -7.9001 1.63457 0.313982
lowerneck -14.8747 8.28138 10.5439
upperneck 4.4306 10.4796 -13.6882
head 5.06317 4.65821 -5.0013
rclavicle -2.14687e-014 -4.77083e-015
rhumerus -15.8517 1.39519 -78.5803
rradius 82.0358
rwrist -16.7813
rhand -15.9121 32.9881
rfingers 7.12502
rthumb 10.285 3.25959
lclavicle -2.14687e-014 -4.77083e-015
lhumerus -14.0879 -15.5001 82.4384
lradius 76.7793
lwrist 24.3987
lhand -15.3694 -30.5866
lfingers 7.12502
lthumb 10.8084 -0.884688
rfemur -59.3634 -13.8561 14.4895
rtibia 70.8302
rfoot -32.6851 -8.87517
rtoes -12.9237
lfemur -56.7499 18.4092 -17.2698
ltibia 58.1624
lfoot -19.0548 -11.2696
ltoes -3.82717
851
root 7.3893 14.6305 -0.669579 161.502 83.6786 140.389
lowerback 17.8844 2.71646 -2.51241
upperback 2.17178 3.18123 -0.346502
thorax -7.78983 1.6552 0.273636
lowerneck -14.503 8.18894 10.9348
upperneck 4.07256 10.3311 -14.1392
head 4.9254 4.59271 -5.23809
rclavicle -5.96354e-015 -7.95139e-016
rhumerus -15.7763 1.34492 -78.6053
rradius 82.018
rwrist -16.8121
rhand -15.7516 32.968
rfingers 7.12502
rthumb 10.4398 3.24719
lclavicle -5.96354e-015 -7.95139e-016
lhumerus -14.0805 -15.3943 82.431
lradius 76.7423
lwrist 24.4848
lhand -15.1991 -30.6646
lfingers 7.12502
lthumb 10.9728 -0.97131
rfemur -59.5138 -13.704 14.5962
rtibia 70.8041
rfoot -32.6279 -8.72713
rtoes -12.7444
lfemur -56.94 18.4142 -17.1065
ltibia 58.471
lfoot -19.2069 -10.9908
ltoes -3.47483
852
root 7.38586 14.6249 -0.699337 160.063 83.8963 138.94
lowerback 17.8229 2.72875 -2.65185
upperback 2.19214 3.17596 -0.305523
thorax -7.74385 1.65728 0.400989
lowerneck -14.5566 8.33458 10.8775
upperneck 4.18953 10.5655 -14.2997
head 5.00778 4.69399 -5.24933
rclavicle -2.14687e-014 2.22639e-014
rhumerus -15.758 1.40452 -78.6321
rradius 81.9315
rwrist -16.7448
rhand -15.7281 33.1412
rfingers 7.12502
rthumb 10.4625 3.42159
lclavicle -2.14687e-014 2.22639e-014
lhumerus -14.1972 -15.2235 82.4979
lradius 76.7269
lwrist 24.42
lhand -15.1542 -30.8343
lfingers 7.12502
lthumb 11.016 -1.14339
rfemur -59.5879 -13.6461 14.4542
rtibia 70.8019
rfoot -32.4698 -8.54043
rtoes -12.6698
lfemur -56.9958 18.3602 -17.1616
ltibia 58.7405
lfoot -19.351 -10.6803
ltoes -3.31496
853
root 7.38431 14.6251 -0.728455 158.572 84.035 137.513
lowerback 17.861 2.74219 -2.77634
upperback 2.19153 3.1694 -0.291203
thorax -7.77263 1.65816 0.486391
lowerneck -14.0652 8.27328 11.3951
upperneck 3.79037 10.4381 -14.7244
head 4.84546 4.64833 -5.49978
rclavicle -3.45885e-014 -7.15625e-015
rhumerus -15.8339 1.44426 -78.6669
rradius 81.8654
rwrist -16.6685
rhand -15.869 33.2247
rfingers 7.12502
rthumb 10.3266 3.49822
lclavicle -3.45885e-014 -7.15625e-015
lhumerus -14.3188 -15.2161 82.5626
lradius 76.6339
lwrist 24.2796
lhand -15.365 -31.0035
lfingers 7.12502
lthumb 10.8127 -1.30182
rfemur -59.5306 -13.6784 14.2861
rtibia 70.7954
rfoot -32.3969 -8.29536
rtoes -12.6075
lfemur -56.9565 18.3079 -17.2694
ltibia 58.9622
lfoot -19.5157 -10.3497
ltoes -3.22857
854
root 7.3806 14.6221 -0.756764 157.576 84.1662 136.565
lowerback 17.9937 2.74858 -2.79323
upperback 2.15253 3.16506 -0.333162
thorax -7.88592 1.65618 0.444696
lowerneck -15.1166 8.2198 10.34
upperneck 4.70341 10.4509 -13.7607
head 5.17778 4.62055 -4.98695
rclavicle 1.23246e-014 -2.06736e-014
rhumerus -15.8811 1.42273 -78.7776
rradius 81.7682
rwrist -16.636
rhand -15.9079 33.2012
rfingers 7.12502
rthumb 10.289 3.47287
lclavicle 1.23246e-014 -2.06736e-014
lhumerus -14.3074 -15.3208 82.5524
lradius 76.3481
lwrist 24.1021
lhand -15.7509 -31.1295
lfingers 7.12502
lthumb 10.4405 -1.40871
rfemur -59.518 -13.6913 14.1793
rtibia 70.7906
rfoot -32.3544 -8.13297
rtoes -12.8315
lfemur -57.0023 18.2495 -17.3581
ltibia 59.1699
lfoot -19.7548 -9.84148
ltoes -4.5208
855
root 7.37751 14.6214 -0.78661 155.813 84.3185 134.781
lowerback 18.0398 2.75922 -2.86134
upperback 2.12001 3.15803 -0.38649
thorax -7.94678 1.65406 0.424485
lowerneck -14.8473 8.22715 10.6482
upperneck 4.52105 10.415 -13.8598
head 5.09589 4.6171 -5.08083
rclavicle 1.51076e-014 7.15625e-015
rhumerus -15.8437 1.38448 -78.8873
rradius 81.607
rwrist -16.5859
rhand -15.8616 33.1783
rfingers 7.12502
rthumb 10.3337 3.45219
lclavicle 1.51076e-014 7.15625e-015
lhumerus -14.3199 -15.3801 82.4973
lradius 76.2507
lwrist 24.152
lhand -15.8414 -31.0157
lfingers 7.12502
lthumb 10.3531 -1.29059
rfemur -59.5856 -13.6621 14.0188
rtibia 70.7467
rfoot -32.2339 -8.05246
rtoes -13.0583
lfemur -57.0911 18.2698 -17.5537
ltibia 59.3571
lfoot -19.9901 -9.43148
ltoes -6.14315
856
root 7.37913 14.6234 -0.81627 155.281 84.5392 134.194
lowerback 17.9396 2.7378 -2.85768
upperback 2.11564 3.1366 -0.34066
thorax -7.89846 1.64377 0.481479
lowerneck -14.2722 8.27212 10.8734
upperneck 3.94129 10.4484 -14.0341
head 4.85218 4.66484 -5.18803
rclavicle 4.25399e-014 2.14687e-014
rhumerus -15.841 1.42413 -78.9521
rradius 81.4985
rwrist -16.5063
rhand -15.9219 33.0578
rfingers 7.12502
rthumb 10.2755 3.32881
lclavicle 4.25399e-014 2.14687e-014
lhumerus -14.3798 -15.2485 82.465
lradius 76.3417
lwrist 24.3269
lhand -15.6056 -30.7658
lfingers 7.12502
lthumb 10.5806 -1.05215
rfemur -59.6198 -13.5684 14.0005
rtibia 70.6525
rfoot -32.2308 -7.86996
rtoes -12.7245
lfemur -57.2103 18.3259 -17.5855
ltibia 59.5479
lfoot -20.1382 -9.18766
ltoes -6.67998
